<svg version="1.2" xmlns="http://www.w3.org/2000/svg" viewBox="0 0 500 500" width="500px" height="500px">
	<title>464AE590-1F62-4811-B3E4-1B4458245A17</title>
	<style>
		.s0 { opacity: 1;fill: #203e78 } 
		.s1 { opacity: .5;fill: #203e78 } 
		.s2 { opacity: .9;fill: #35a2db } 
	</style>
	<g id="Background">
		<path id="Path 0" fill-rule="evenodd" class="s0" d="m419 240c1.1 0 2.3 0.7 2.8 1.6 0.6 1.4 0.8 1.4 1.7 0 0.6-0.9 2.1-1.6 3.3-1.6 1.7 0 2.2 0.6 2.2 2.5 0 1.7-0.6 2.5-1.7 2.5-1 0-2.5 0.5-3.3 1-0.9 0.6-1.7 3.1-2 6.2-0.5 4.9-0.7 5.3-3 5.3-2.4 0-2.5-0.3-2.8-7.4-0.2-4.1-0.1-8 0.2-8.8 0.3-0.7 1.5-1.3 2.6-1.3zm18.6 0c1.3 0 3.5 0.6 4.9 1.3 1.4 0.6 2.9 2.2 3.5 3.5 0.5 1.2 1 2.9 1 3.7 0 1.2-1.3 1.5-6 1.5-3.3 0-6 0.4-6 1 0 0.6 0.9 1.4 2 2 1.1 0.6 3.6 0.8 5.5 0.5 3-0.4 3.5-0.2 3.5 1.5 0 1.1-0.7 2.2-1.5 2.5-0.8 0.3-3.3 0.5-5.5 0.5-3.2 0-4.6-0.7-7.2-3.2-2.7-2.9-3.1-3.8-2.5-6.8 0.3-1.9 1.8-4.5 3.2-5.7 1.5-1.3 3.7-2.3 5.1-2.3zm-1.8 6.1c0.1 0.5 1.3 0.9 2.7 0.9 1.4 0 2.5-0.4 2.5-0.9-0.1-0.5-0.7-1.1-1.4-1.3-0.7-0.3-1.9-0.3-2.7-0.1-0.7 0.3-1.2 0.9-1.1 1.4zm13.7-6.1c0.8 0 1.8 0.6 2.2 1.2 0.5 0.7 1.5 3.1 4 9.3l2.4-4.9c1.3-2.8 3-5.1 3.6-5.3 0.7-0.2 2.4 2.1 6.1 10.2l1.6-4c0.9-2.2 1.6-4.3 1.6-4.7 0-0.5 0.7-1 1.5-1.3 0.8-0.3 2-0.2 2.6 0.3 0.6 0.4 0.9 1.8 0.6 3.2-0.3 1.4-1.7 5.1-3.1 8.3-2.2 4.7-3 5.7-4.9 5.5-1.5-0.2-2.8-1.6-6-8.3l-2.1 4.3c-1.4 2.9-2.7 4.2-4.1 4.3-1.5 0-2.8-1.8-5.4-7.3-1.9-4.1-3.1-8.1-2.7-9 0.3-1 1.2-1.8 2.1-1.8z"/>
		<path id="Path 1" class="s1" d="m422.3 252c0 2.5 0.2 3.4 0.4 2 0.2-1.4 0.2-3.4 0-4.5-0.2-1.1-0.4 0-0.4 2.5zm12.7-1c0 0.6 0.6 1.3 1.2 1.8q1.3 0.7 0.5-0.6c-0.5-0.9 0.7-1.3 4.5-1.5l5.3-0.3c-9-0.3-11.5 0-11.5 0.6z"/>
		<path id="Path 2" fill-rule="evenodd" class="s0" d="m237.3 158c0.6-0.1 1.8 0.6 2.4 1.5 1.1 1.3-2.4 6.1-47.7 62.5v7.5c0 4.1-0.2 7.5-0.5 7.5-0.3 0-4.4-3.2-9.3-7.1-4.8-4-8.8-7.6-9-8-0.1-0.5 2.2-1.4 5-2 2.9-0.5 6.3-1.2 7.5-1.5 1.6-0.3 10.3-10.3 26.3-30.4 13.2-16.5 24.6-30 25.3-30zm-114.8 3.1l0.2 17c0.2 12.9 0.6 16.8 1.5 16.6 0.9-0.3 1.5-3.5 2.3-20.1l18-3.3c9.9-1.8 18.3-3.2 18.7-3.1 0.5 0.2 6.8 9.1 14.2 19.8 10.2 15 13.1 19.9 12.5 21.2-0.5 1-1.3 1.8-1.9 1.8-0.6 0-6.4-8.1-13-18-6.6-9.9-12.2-18-12.5-18-0.3 0-7.8 11.5-16.8 25.6-8.9 14.1-16.5 25.8-17 26-0.4 0.2-13.2 1.8-28.5 3.4-15.2 1.7-28 2.9-28.4 2.8-0.4-0.2 7.6-12.2 17.8-26.8 10.1-14.6 19.3-27.2 20.4-28 1.3-1.1 2-3 2.2-6.5 0.3-4.9 0.4-5.1 5.3-7.7zm143.8 39.9c4 0 8.3 0.6 9.6 1.3 1.3 0.6 3.3 2.3 4.3 3.7 1.3 1.7 1.9 4.1 1.9 7.5 0 2.8-0.7 6-1.6 7.2-0.8 1.3-3.1 3-5 3.8-1.9 0.8-6.2 1.5-9.5 1.5-5 0-6.2-0.3-7-2-0.6-1.1-1-6.1-1-11 0-5 0.3-9.7 0.6-10.5 0.4-1.1 2.3-1.5 7.7-1.5zm-1.3 19c5.3 0 7.6-0.7 8.4-1.5 0.9-0.8 1.6-3.2 1.6-5.3 0.1-2-0.5-4.3-1.2-4.9-0.7-0.7-2.9-1.6-4.9-1.9l-3.6-0.7zm87.1-19c6.6 0 8.2 0.4 9.9 2 1.1 1.1 2 3 2.1 4.3 0 1.2-0.7 2.8-1.5 3.5-1.4 1.1-1.4 1.5 0.5 4 1.4 1.9 1.8 3.6 1.5 5.5-0.4 1.7-1.7 3.3-3.6 4.2-1.7 0.9-5.7 1.5-9.5 1.5-5.5 0-6.6-0.3-7.5-2-0.5-1.1-1-6-1-11 0-4.9 0.3-9.6 0.6-10.5 0.4-1.1 2.4-1.5 8.5-1.5zm1.4 9c2.8 0 3.5-0.3 3.5-2 0-1.6-0.7-2-3.5-2-2.8 0-3.5 0.4-3.5 2 0 1.7 0.7 2 3.5 2zm0.3 10.8c3-0.2 3.7-0.7 3.7-2.3 0-1.5-0.8-2-3.7-2.3-3.3-0.3-3.7-0.1-3.7 2.3-0.1 2.3 0.2 2.5 3.7 2.3zm-29.7-17.8c1 0 2.5 1.2 3.2 2.5 0.6 1.4 2.2 2.7 3.5 3 1.4 0.4 2.1 1.2 1.9 2.3-0.1 1-1.2 1.8-2.5 2-1.9 0.2-2.2 0.8-2.2 4.2 0 3.6 0.3 4 2.5 4 2 0 2.5 0.5 2.3 2.3-0.2 1.5-1.1 2.3-2.8 2.6-1.4 0.1-3.5 0-4.7-0.3-1.5-0.4-2.7-1.8-3.3-3.8-0.6-1.8-1-4.5-1-6 0-1.5-0.3-2.8-0.7-2.8-0.5-0.1-2.9-0.2-5.5-0.3-2.6-0.1-4.8 0.3-4.8 0.8-0.1 0.6 1.4 1.4 3.2 1.9 1.8 0.4 3.9 1.3 4.6 2 0.7 0.6 1.3 2.1 1.3 3.4-0.1 1.2-1.1 2.9-2.3 3.7-1.3 0.9-4.1 1.6-6.3 1.6-2.2 0-4.8-0.6-5.9-1.3-1-0.7-1.6-1.8-1.2-2.5 0.4-0.9 1.9-1.1 5.3-0.5 3.9 0.6 4.6 0.5 4.2-0.8-0.3-0.8-2.1-1.8-4-2.2-1.9-0.4-3.7-1.1-4.2-1.5-0.4-0.4-0.6-2.1-0.5-3.7q0.3-3 2.8-4.3c1.6-0.9 4.4-1.1 7.8-0.8 5.1 0.5 5.2 0.5 6.3-2.5 0.7-1.9 1.8-3 3-3zm82 0c1 0 2.5 1.2 3.2 2.5 0.6 1.4 2.2 2.7 3.5 3 1.4 0.4 2.1 1.2 1.9 2.3-0.1 1-1.2 1.8-2.5 2-1.9 0.2-2.2 0.8-2.2 4.2 0 3.6 0.3 4 2.5 4 2 0 2.5 0.5 2.3 2.3-0.2 1.5-1.1 2.3-2.8 2.6-1.4 0.1-3.5 0-4.7-0.3-1.5-0.4-2.7-1.8-3.3-3.8-0.6-1.8-1-4.5-1-6 0-1.5-0.3-2.8-0.7-2.8-0.5-0.1-2.9-0.2-5.5-0.3-2.6-0.1-4.8 0.3-4.8 0.8-0.1 0.6 1.4 1.4 3.2 1.9 1.8 0.4 3.9 1.3 4.6 2 0.7 0.6 1.3 2.1 1.3 3.4-0.1 1.2-1.1 2.9-2.3 3.7-1.3 0.9-4.1 1.6-6.3 1.6-2.2 0-4.8-0.6-5.9-1.3-1-0.7-1.6-1.8-1.2-2.5 0.4-0.9 1.9-1.1 5.3-0.5 3.9 0.6 4.6 0.5 4.2-0.8-0.3-0.8-2.1-1.8-4-2.2-1.9-0.4-3.7-1.1-4.2-1.5-0.4-0.4-0.6-2.1-0.5-3.7q0.3-3 2.8-4.3c1.6-0.9 4.4-1.1 7.8-0.8 5.1 0.5 5.2 0.5 6.3-2.5 0.7-1.9 1.8-3 3-3zm-118.6 5.2c1.7 0.3 2.1 1.2 2.3 5.8 0.2 3.1 0.8 6.1 1.3 6.8 0.5 0.7 1.6 1 2.4 0.7 1.1-0.3 1.5-1.9 1.5-5.2 0-2.6 0.6-5.7 1.4-6.8 1.2-1.6 1.9-1.7 3.3-0.9 1.3 0.9 1.9 2.6 2.1 7 0.2 3.3 0.1 6.9-0.2 8.2-0.4 1.4-1.3 2.2-2.6 2.2-1.1 0-2.2-0.4-2.5-1q-0.5-1-2.5 0c-1.1 0.6-3.1 1-4.5 1-1.5 0-3.1-0.9-4-2.2-0.9-1.3-1.6-4.8-1.7-8.3-0.1-3.4 0.3-6.4 0.7-6.8 0.5-0.4 1.8-0.6 3-0.5zm82 0c1.7 0.3 2.1 1.2 2.3 5.8 0.2 3.1 0.8 6.1 1.3 6.8 0.5 0.7 1.6 1 2.4 0.7 1.1-0.3 1.5-1.9 1.5-5.2 0-2.6 0.6-5.7 1.4-6.8 1.2-1.6 1.9-1.7 3.3-0.9 1.3 0.9 1.9 2.6 2.1 7 0.2 3.3 0.1 6.9-0.2 8.2-0.4 1.4-1.3 2.2-2.6 2.2-1.1 0-2.2-0.4-2.5-1q-0.5-1-2.5 0c-1.1 0.6-3.1 1-4.5 1-1.5 0-3.1-0.9-4-2.2-0.9-1.3-1.6-4.8-1.7-8.3-0.1-3.4 0.3-6.4 0.7-6.8 0.5-0.4 1.8-0.6 3-0.5zm54.1-0.2c1.3 0 3.5 0.6 4.9 1.3 1.4 0.7 3 2.2 3.5 3.5 0.6 1.2 1 2.9 1 3.7 0 1.2-1.3 1.5-6 1.5-3.3 0-6 0.5-6 1 0 0.6 0.9 1.5 2 2 1.1 0.6 3.6 0.8 5.5 0.5 3-0.4 3.5-0.2 3.5 1.5 0 1.1-0.7 2.3-1.5 2.5-0.8 0.3-3.3 0.5-5.5 0.5-3.2 0-4.6-0.6-7.2-3.2-2.7-2.8-3-3.7-2.5-6.8 0.4-1.9 1.8-4.5 3.2-5.7 1.5-1.3 3.7-2.3 5.1-2.3zm-1.8 6.1c0.1 0.5 1.3 0.9 2.7 0.9 1.4 0 2.5-0.4 2.5-0.9-0.1-0.4-0.7-1.1-1.4-1.3-0.7-0.3-1.9-0.3-2.6 0-0.8 0.2-1.3 0.8-1.2 1.3zm15.2-6.1c1.1 0 2.3 0.7 2.8 1.6 0.6 1.4 0.8 1.4 1.7 0 0.6-0.9 2.1-1.6 3.3-1.6 1.7 0 2.2 0.6 2.2 2.5 0 2-0.6 2.6-3 3-2.1 0.4-3.1 1.2-3.5 2.8-0.2 1.2-0.6 3.8-0.7 5.7-0.3 3-0.7 3.5-2.8 3.5-2.4 0-2.5-0.2-2.8-7.4-0.2-4-0.1-8 0.2-8.7 0.3-0.8 1.5-1.4 2.6-1.4zm18.5 0.1c1.1 0 3 0.2 4.3 0.4 1.4 0.4 2.2 1.3 2.2 2.5 0 1.7-0.6 2-3.9 1.8-2.2-0.2-4 0.2-4 0.7-0.1 0.6 1.4 1.4 3.2 1.9 1.7 0.4 3.8 1.3 4.5 2 0.7 0.6 1.3 2.1 1.3 3.4-0.1 1.2-1.1 2.9-2.3 3.7-1.3 0.9-4.1 1.6-6.3 1.6-2.2 0-4.8-0.6-5.9-1.3-1-0.7-1.6-1.8-1.2-2.5 0.4-0.9 1.9-1.1 5.3-0.5 3.9 0.6 4.6 0.5 4.2-0.8-0.3-0.8-2.1-1.8-4-2.2-1.9-0.4-3.7-1.1-4.2-1.5-0.4-0.4-0.6-2.1-0.5-3.7 0.2-1.9 1.2-3.4 2.8-4.2 1.4-0.8 3.4-1.3 4.5-1.3zm-287.2 16c0.9 0 6.5 3.9 12.3 8.7 5.8 4.8 10.5 9.2 10.5 9.7 0 0.6-0.9 4-2 7.5-1.1 3.6-3.5 8.8-5.3 11.5-1.8 2.7-4.8 5.9-9.8 9.5l-7-4 3.5-4c1.9-2.2 3.5-4.2 3.5-4.5 0-0.2-2.4 0.9-5.2 2.5-5.1 2.9-5.4 2.9-10-0.5l3.9-4c2.2-2.2 4.6-4.9 5.4-5.9 0.8-1.1-1.7 0.2-12.6 7.7l-4-4.2 2.3-3c1.2-1.7 2-3.1 1.7-3.1-0.3 0-2.1 0.8-4 1.8-3.1 1.5-3.7 1.6-5.1 0.2-1.4-1.3-0.9-2 5.5-7.2 3.9-3.2 7.1-6 7.1-6.3 0-0.2-1.2 0.2-2.7 0.9-1.6 0.8-5.2 2.8-8 4.5-2.9 1.7-6 3.1-6.8 3.1-0.8 0-1.9-0.9-2.5-2-0.5-1.1-0.9-2.1-0.7-2.3 0.1-0.2 2-1.3 4.2-2.5 2.2-1.1 3.3-2.1 2.5-2.1-0.8 0-3.3 0.4-5.5 1-3.8 1.1-4.1 1-6.2-1.7-1.3-1.6-2.3-3.2-2.3-3.6 0-0.4 3-0.8 6.8-0.8 3.7 0 10.4-0.9 15-2 4.5-1.1 9.4-2.6 11-3.4 1.5-0.8 3.5-1.5 4.5-1.5zm171.3 7.7c0.7 0.3 1.3 1.5 1.4 2.8 0 2.1-0.4 2.4-2.7 2.2-2.1-0.2-2.9-0.9-3-2.5-0.2-1.4 0.3-2.4 1.3-2.6 0.9-0.1 2.2-0.1 3 0.1zm-80.1 0.9c1.7 0.3 3.7 1.1 4.5 1.9 0.9 0.8 1.2 2 0.8 2.9-0.6 1.2-1.7 1.4-5.2 0.8-3.7-0.6-4.8-0.4-6.6 1.2-1.3 1.3-2 3.3-2 5.5 0 2 0.6 4.4 1.4 5.5 1.2 1.7 2.4 2 7 1.8 5-0.2 5.6-0.1 5.6 1.7 0 1.1-0.9 2.5-2 3-1.1 0.6-3.8 1-6 1-2.2 0-5.3-0.6-7-1.5-1.6-0.8-3.7-2.9-4.6-4.7-1.2-2.3-1.5-4.7-1.1-8.3 0.4-3.4 1.3-5.7 2.9-7.3 1.3-1.2 3.9-2.6 5.8-3.1 1.9-0.5 4.9-0.7 6.5-0.4zm12.1 0c1 0.4 1.3 3 1.4 9.9 0 8.6 0.2 9.5 2 9.9q2 0.5 2 3c0 2.2-0.4 2.5-3.5 2.5-2.5 0-3.9-0.6-5-2.2-1-1.6-1.6-5.2-1.7-12-0.1-8.3 0.1-9.8 1.6-10.6 1-0.5 2.4-0.7 3.2-0.5zm136.9 0c1.7 0.3 3.7 1.1 4.5 1.9 0.9 0.8 1.2 2 0.8 2.9-0.6 1.2-1.7 1.4-5.2 0.8-3.7-0.6-4.8-0.4-6.6 1.2-1.3 1.3-2 3.3-2 5.5 0 2 0.6 4.4 1.4 5.5 1.2 1.7 2.4 2 7 1.8 5-0.2 5.6-0.1 5.6 1.7 0 1.1-0.9 2.5-2 3-1.1 0.6-3.8 1-6 1-2.2 0-5.3-0.6-7-1.5-1.6-0.8-3.7-2.9-4.6-4.7-1.2-2.3-1.5-4.7-1.1-8.3 0.4-3.4 1.3-5.7 2.9-7.3 1.3-1.2 3.9-2.6 5.8-3.1 1.9-0.5 4.9-0.7 6.5-0.4zm-295.5 2.3v18h-11l-0.2-8.4c-0.3-7.7-0.1-8.5 1.7-8.9 1.1-0.2 3.7-0.5 9.5-0.7zm-15.7 1.2c1.5-0.1 1.7 0.9 1.7 8.3 0 4.7-0.3 8.5-0.7 8.5-0.5 0-2.3 0.4-7.3 1.5v-8.7c0-8.3 0.1-8.8 2.3-9.1 1.2-0.2 3-0.5 4-0.5zm188.3 3.8c1.3 0 3.5 0.6 4.9 1.3 1.4 0.7 3 2.2 3.5 3.5 0.6 1.2 1 2.9 1 3.7 0 1.2-1.3 1.5-6 1.5-3.3 0-6 0.5-6 1 0 0.6 0.9 1.5 2 2 1.1 0.6 3.6 0.8 5.5 0.5 3-0.4 3.5-0.2 3.5 1.5 0 1.1-0.7 2.3-1.5 2.5-0.8 0.3-3.3 0.5-5.5 0.5-3.2 0-4.6-0.6-7.2-3.2-2.7-2.8-3-3.7-2.5-6.8 0.4-1.9 1.8-4.5 3.2-5.7 1.5-1.3 3.7-2.3 5.1-2.3zm-1.8 6.1c0.1 0.5 1.3 0.9 2.7 0.9 1.4 0 2.5-0.4 2.5-0.9-0.1-0.4-0.7-1.1-1.4-1.3-0.7-0.3-1.9-0.3-2.6 0-0.8 0.2-1.3 0.8-1.2 1.3zm20.2-6c1.9-0.1 4.4 0.5 5.5 1.3 1.3 0.9 2.3 3.1 2.8 6.2 0.5 2.7 0.6 6.2 0.3 7.7-0.4 1.9-1.2 2.7-2.6 2.7-1.1 0-2.3-0.5-2.6-1.2-0.5-1-0.8-1-1.7 0-0.6 0.7-2.4 1.2-3.9 1.2-1.5 0-3.7-0.9-4.8-2-1.1-1.1-2-2.6-2-3.5 0-0.8 0.7-2.1 1.6-3 0.8-0.8 3.2-1.5 5.3-1.5 2.1 0 4.1-0.3 4.4-0.7 0.4-0.4 0.2-1.3-0.3-2-0.7-0.9-2.2-1-5-0.5-3.4 0.6-4 0.5-4.2-1-0.1-0.9 0.7-2.1 1.8-2.7 1-0.5 3.5-1 5.4-1zm-0.3 13.7c0.9-0.2 1.8-0.8 2-1.5 0.2-0.7-0.6-1.3-1.7-1.3-1.1 0-2 0.7-2 1.5 0 0.9 0.8 1.4 1.7 1.3zm13.5-13.8c0.7 0 1.9 0.6 2.5 1.3 1 1 1.9 1 4.5-0.2 2.6-1 3.8-1.1 5.6-0.2 1.2 0.6 2.5 2.1 2.8 3.4 0.3 1.2 0.4 4.7 0.2 7.7-0.3 5.2-0.5 5.5-2.8 5.5-2.3 0-2.5-0.4-3-6-0.4-5.3-0.7-6-2.7-6.2-1.7-0.2-2.4 0.4-2.8 2-0.2 1.2-0.6 4-0.7 6.2-0.3 3.6-0.6 4-2.8 4-2.4 0-2.5-0.2-2.8-7.4-0.2-4-0.1-8 0.2-8.7 0.3-0.8 1.1-1.4 1.8-1.4zm21.1 0.2c2.1 0.3 2.2 0.8 2.2 8.8 0 8.4 0 8.5-2.5 8.5-2.4 0-2.5-0.2-2.8-7.4-0.2-4 0-8 0.3-8.8 0.3-0.8 1.6-1.3 2.8-1.1zm7.9-0.2c0.7 0 1.9 0.6 2.6 1.5 1.1 1.4 1.4 1.4 3.5 0 1.2-0.8 3-1.5 4-1.5 0.9 0 2.6 0.9 3.7 2 1.7 1.7 2 3.2 1.8 8.8-0.3 6.5-0.4 6.7-2.8 6.7-2.3 0-2.5-0.4-3-6-0.4-5.3-0.7-6-2.7-6.2-1.7-0.2-2.4 0.4-2.8 2-0.2 1.2-0.6 4-0.7 6.2-0.3 3.6-0.6 4-2.8 4-2.4 0-2.5-0.2-2.8-7.4-0.2-4-0.1-8 0.2-8.7 0.3-0.8 1.1-1.4 1.8-1.4zm24.1 0.1c0.9 0 2.6 0.4 3.7 0.9 1.4 0.7 2.6 0.7 4.1-0.2 1.7-1.1 2.2-1 3.5 0.7 0.9 1.2 1.4 4.3 1.4 7.5 0 3.1-0.4 7.2-1 9.3-0.8 3-1.8 4.1-4.7 5.3-2.4 1.1-5.1 1.4-7.3 1-1.9-0.3-4.1-1.1-4.9-1.8-0.7-0.7-1-1.8-0.7-2.5 0.4-0.9 2-1.1 5.4-0.6 4.2 0.6 4.9 0.4 6-1.5 0.6-1.2 1-2.5 0.7-2.9-0.3-0.4-1.1-0.2-1.7 0.5-0.7 0.7-2.6 1.3-4.2 1.3-1.7 0-3.9-0.8-4.8-1.8-0.9-1-2-3.1-2.4-4.8-0.4-1.9 0-4.1 1-6.1 0.9-1.8 2.2-3.4 2.9-3.7 0.6-0.3 2-0.5 3-0.6zm-0.1 9.4c0.2 1.1 1.2 2.2 2.3 2.3 1.1 0.2 2.4 0 2.9-0.5 0.4-0.4 0.5-2 0.2-3.5-0.4-1.9-1.2-2.8-2.6-2.8-1.1 0-2.3 0.6-2.6 1.3-0.3 0.7-0.4 2.1-0.2 3.2z"/>
		<path id="Path 3" fill-rule="evenodd" class="s2" d="m209.1 148.3c0.6 1.7 1.6 2.7 2.9 2.7 1.1 0 2 0.4 2 1 0 0.5-0.9 1-2 1-1.4 0-2.2 0.9-3.3 5.5l-0.9-2.8c-0.4-1.5-1.5-2.7-2.3-2.7-0.8 0-1.5-0.5-1.5-1 0-0.6 0.9-1.2 2-1.5 1.2-0.3 2-1.4 2.1-2.8 0-2 0.2-1.9 1 0.5zm-24.5 5.8c0.2 0 0.8 1.1 1.4 2.5 0.6 1.6 1.8 2.5 3.3 2.6 2.1 0.1 2.1 0.1-0.3 0.9-1.4 0.5-2.9 2-4.1 5.5l-1-2.3c-0.5-1.2-1.9-2.5-3.1-2.9-2.3-0.7-2.3-0.7 0.2-1.3 1.6-0.4 2.6-1.4 2.8-2.8 0.2-1.2 0.5-2.2 0.8-2.2zm17.3 16.5c0.5 0.5 1.1 1.9 1.3 3 0.2 1.3 1.2 2.1 3.1 2.2 1.5 0.2 2.7 0.7 2.7 1.3 0 0.5-1.1 1-2.5 1-1.4 0-2.7 0.7-3 1.5-0.3 0.8-0.8 2.3-1.2 3.2-0.5 1.6-0.7 1.6-1.1-0.2-0.2-1.1-0.9-2.6-1.6-3.3-0.6-0.7-1.9-1.3-2.8-1.2-1 0-1.8-0.5-1.8-1 0-0.6 0.8-1 1.8-1 1 0 2.3-0.6 3-1.3 0.7-0.6 1.2-2.1 1.2-3.2 0-1.3 0.3-1.6 0.9-1zm-21.4 14.5l3 0.7c1.7 0.3 5 1.5 7.5 2.5 2.5 1.1 5.7 2.8 7.3 3.9 1.5 1 2.7 2.2 2.7 2.6 0 0.5-0.7 1.7-1.5 2.8-1.4 1.9-1.6 1.8-7.3-3-3.2-2.8-7.2-6-8.8-7.2zm-13.3 11.2c0.5 1.9 1.5 2.8 5.3 2.9l-2.3 0.9c-1.2 0.5-2.6 2-3.9 5.4l-0.7-2.2c-0.3-1.2-1.6-2.5-5.1-3.5l2.2-0.9c1.3-0.5 2.6-1.9 3-3.1 0.6-2.2 0.7-2.2 1.5 0.5zm44.9 7.7c0.5 0 3 3.1 5.6 6.8 2.6 3.7 6.1 10.1 7.7 14.2 2.4 6.2 3 9.5 3.4 18.5 0.3 8.5 0.1 12.4-1.3 17-0.9 3.3-3 8.7-4.7 12-1.7 3.3-4.9 8.5-7.2 11.5-2.2 2.9-6.8 7.6-10.1 10.2-3.3 2.7-9.2 6.5-13 8.4-3.9 1.9-10.6 4.3-15 5.5-5.8 1.4-11.2 2-19.5 1.9-7.5 0-14.8-0.7-21-2-5.2-1-16-4.2-24-7-8-2.8-19.7-6.9-26-9-6.3-2.1-14.7-4.3-18.5-5-5.1-0.8-8.4-0.8-12 0-2.8 0.6-6.7 2.2-8.8 3.6-2 1.3-3.7 2-3.7 1.4 0-0.5 2.2-2.9 4.8-5.2 2.8-2.5 6.8-4.9 9.7-5.8 3-0.9 8.4-1.4 13.5-1.3 5.4 0.1 12.1 1 18.5 2.6 5.5 1.4 18.3 5.5 28.5 9.1 10.2 3.6 21 7.1 24 7.6 3 0.6 8 1 11 1 3 0 8.6-0.7 12.5-1.5 3.8-0.8 10.6-3.2 15-5.4 4.4-2.2 10.6-6.3 13.9-9.2 3.2-3 8.1-8.6 10.7-12.6 2.7-4 4.9-7.7 4.9-8.3 0-0.5-2.4 1.4-5.3 4.3-3 2.9-8 6.6-11.3 8.4-3.2 1.7-8.4 3.9-11.4 5-4.3 1.4-8.2 1.8-18.5 1.8-11.5-0.1-14.2-0.5-23-3.2-5.5-1.7-17.4-5.6-26.5-8.8-13.8-4.8-17.6-5.8-23.5-5.9-5.7 0-7.7 0.4-15 4.9l1.6-2.5c0.8-1.3 4-3.7 7-5.2 4.3-2.2 6.7-2.8 11.9-2.8 3.6 0 10.1 0.9 14.5 2 4.4 1 15.2 4.4 24 7.5 10.2 3.6 18.3 5.8 22.5 6.2 3.6 0.3 9.2 0.1 12.5-0.6 3.3-0.6 8.9-2.5 12.5-4.2 4-1.9 8.9-5.4 12.8-9.2 4.5-4.3 7.4-8.4 10-13.7 3.2-6.4 3.7-8.6 4-16 0.3-6.5 0-9.8-3.6-20.5l2.5-3.2c1.4-1.8 2.9-3.3 3.4-3.3zm-58.9 8.3c1.3 1.2 1.8 2.3 1.3 2.5-0.6 0.1-1.5 1.2-2.2 2.5-0.9 1.8-1.2 1.9-1.2 0.5-0.1-1-1.1-2.1-4.6-3.5l2.2-0.6c1.3-0.4 2.3-1.3 2.2-2.1 0-1.1 0.6-0.9 2.3 0.7z"/>
		<path id="Path 4" class="s1" d="m233.9 159.8l-2.4 2.7c4.8-4.7 5.2-4.8 7.5-3.6 2.3 1.3 2.4 1.3 1-0.3-0.8-0.9-2-1.7-2.6-1.6-0.6 0-2.2 1.2-3.5 2.7zm-110.7 18c-0.2 13.4 0.1 17.2 1 17 0.9-0.3 1.5-3.6 1.8-10.4 0.3-5.6 0.2-9.9-0.3-9.7-0.4 0.2-0.8 4.8-0.9 10.1-0.2 7.4-0.4 5.6-0.8-7.2l-0.6-17zm59.8-13.8c0.6 1.7 1.5 3 2 3 0.6 0 1-0.6 1-1.5 0-0.8-0.4-1.2-1-1-0.5 0.3-0.9-0.1-0.9-0.9 0.1-0.8-0.4-1.7-1-2-0.8-0.4-0.8 0.3-0.1 2.4zm37.9 21.8c-10.6 13.4-21.3 26.9-23.6 29.8-2.4 3-4.1 5.4-3.8 5.4 0.3 0 11.2-13.2 24.3-29.5 13-16.2 23.5-29.6 23.1-29.8-0.3-0.1-9.3 10.7-20 24.1zm-108.8-20.1c-1.1 0.4-1.4 1.9-1.3 5.4 0.2 4-0.2 5.3-2 7l-2.3 2.1c5.2-3 5.5-3.8 5.5-7.9 0-2.6 0.5-5.3 1.2-6 0.7-0.7 1-1.2 0.8-1.2-0.3 0.1-1.1 0.3-1.9 0.6zm49.9 1.9c0.8 0.2 3.2 2.9 5.3 5.9 2 3.1 3.9 5.5 4.2 5.5 0.3 0-1.3-2.7-3.5-6-2.5-3.7-4.6-5.9-5.7-5.8-1.3 0.1-1.4 0.2-0.3 0.4zm-0.7 8.7c-0.5 0.7-0.4 0.9 0.2 0.5 0.6-0.4 4.2 4 8.5 10.4 4.1 6.1 7.9 11.3 8.3 11.5 0.4 0.2-2.9-5.1-7.3-11.7-4.4-6.6-8.2-12-8.4-12-0.3 0-0.8 0.6-1.3 1.3zm41.7 21.7c-8.8 11-15.8 20-15.5 20 0.3 0 7.7-9 16.5-20 8.8-11 15.8-20 15.5-20-0.2 0-7.7 9-16.5 20zm-25-13.5c0 0.3 1.3 1.3 2.8 2.2 1.9 1.2 2.3 1.3 1.5 0.3-0.7-0.8-1-1.8-0.6-2.2 0.4-0.4-0.3-0.8-1.5-0.8-1.2 0-2.2 0.3-2.2 0.5zm4 10.5c3.3 5 6.2 9 6.5 9 0.3 0-2.2-4-5.5-9-3.3-4.9-6.2-9-6.5-9-0.3 0 2.1 4.1 5.5 9zm-21.7 3.6c-0.7 0.3-1.1 0.9-0.8 1.4 0.3 0.6 1.3 1 2.3 1 1.4 0 1.5-0.1 0.2-0.9-1.2-0.7-1.2-1 0.5-1.3 1.1-0.3 1.3-0.5 0.5-0.6-0.8 0-2 0.2-2.7 0.4zm9.8 1.7c-1.3 0.7-2.6 1.9-2.8 2.7-0.2 0.9 0 0.8 0.4-0.2 0.5-1 1.9-1.8 3.1-1.8 1.2 0 2.4-0.4 2.6-1 0.2-0.5 0.1-0.9-0.3-0.9-0.3 0-1.7 0.5-3 1.2zm92.4 0.5c1.7 0.2 4.6 0.2 6.5 0 1.9-0.2 0.6-0.4-3-0.4-3.6 0-5.1 0.2-3.5 0.4zm85 0c1.7 0.2 4.6 0.2 6.5 0 1.9-0.2 0.6-0.4-3-0.4-3.6 0-5.1 0.2-3.5 0.4zm-163.6 6.5c1.7 2.6 3.5 4.7 3.9 4.7 0.5 0 1.4-0.5 2-1.2 0.7-0.7 1.2-1.7 1.2-2.3 0-0.5-0.6-0.1-1.5 1-1.5 2-1.6 2-3.3-0.4-0.9-1.3-2.5-3.4-3.5-4.5-1-1.1-0.5 0.1 1.2 2.7zm98.6 6.9c0.3 2.9 0.7 5.6 1 5.8 0.3 0.3 0.6-1.8 0.6-4.6 0.1-2.9-0.4-5.5-0.9-5.9q-1.1-0.6-0.7 4.7zm164.5-1.2c0.2 2.9 0.4 3.1 0.7 1 0.3-1.3 0.8-2.9 1.2-3.5 0.4-0.7 0.1-1.1-0.7-1.1-1.1 0-1.4 0.9-1.2 3.6zm-81.9-0.5c-0.1 1.7-0.4 4.6-0.6 6.5-0.2 2.6-0.1 3.1 0.6 1.8 0.5-1 0.8-3.9 0.6-6.5-0.2-2.9-0.4-3.6-0.6-1.8zm-74.8 3c0 2.9 0.2 3.7 0.4 2 0.3-1.6 0.2-3.9 0-5-0.2-1.1-0.4 0.3-0.4 3zm82 0c0 2.9 0.2 3.7 0.4 2 0.3-1.6 0.2-3.9 0-5-0.2-1.1-0.4 0.3-0.4 3zm-225.7-1.5c-0.3 0.6 0.3 1.4 1.4 1.8 1.1 0.4 2.2 1.5 2.5 2.5 0.3 1 1 1.5 1.5 1.2 0.6-0.2 1-1 1-1.7q0-1.3-1 0.2c-0.8 1.3-1 1.3-1-0.2 0-1-1-2-2.2-2.4-1.9-0.5-2-0.7-0.8-1.5 0.9-0.5 1-0.8 0.3-0.8-0.6 0-1.4 0.4-1.7 0.9zm293.7 6c0 2.5 0.2 3.4 0.4 2 0.3-1.3 0.3-3.4 0-4.5-0.2-1.1-0.4 0.1-0.4 2.5zm-19.3-1c0 0.6 0.6 1.4 1.3 1.8q1.2 0.7 0.5-0.5c-0.6-0.9 0.6-1.3 4.5-1.6l5.2-0.3c-9-0.3-11.5 0.1-11.5 0.6zm-249 2.5c0 0.6 4.3 4.5 9.5 8.8 5.2 4.3 10 7.7 10.5 7.7 0.6 0 0.9-3.2 0.8-8.2l-0.2-8.3c-0.5 12.1-0.8 15.5-1.1 15.5-0.3 0-4.2-3-8.7-6.6-4.6-3.7-8.9-7.4-9.6-8.3-0.7-0.8-1.2-1.1-1.2-0.6zm-3 2.7c1.4 0.5 3.4 1.7 4.6 2.7 1.1 0.9 0.8 0.4-0.8-1.1-1.5-1.5-3.6-2.7-4.5-2.7-1.3 0.1-1 0.4 0.7 1.1zm-10 2.3c-1.9 0.8-2.8 1.4-2 1.4 0.8 0 2.9-0.6 4.5-1.3 1.7-0.8 2.6-1.4 2-1.4-0.5 0-2.6 0.6-4.5 1.3zm-42.5 2.3c1.1 0.2 3.1 0.2 4.5 0 1.4-0.3 0.5-0.5-2-0.5-2.5 0-3.6 0.2-2.5 0.5zm-20.5 1.7c-5.2 0.7-7.7 1.3-5.5 1.3 2.2 0 8.5-0.5 14-1.2 5.5-0.7 8-1.3 5.5-1.3-2.5 0-8.8 0.6-14 1.2zm81.6-0.4c0.7 0.8 3.8 3.5 6.9 5.9 3.2 2.5 6.1 5.4 6.6 6.5 0.6 1.7 0.8 1.8 1 0.4 0.1-1.1-2.9-4.2-7.7-8-4.3-3.5-7.4-5.6-6.8-4.8zm-106.5 1.4c-0.8 1.2-0.8 1.7 0.2 2.1 0.7 0.3 4.4 0 8.2-0.5l7-1c-15.1 1-15.8 0.9-14.7-0.5 0.8-0.8 1.1-1.6 0.9-1.6-0.3 0-1 0.7-1.6 1.5zm58.9-0.2c0.1 0.7 1.2 2.7 2.5 4.5 1.4 1.8 3.2 3.2 4 3.2 0.9 0 1.3 0.7 1 1.5-0.3 0.9 0 1.8 0.5 2 0.6 0.3 0.8 0 0.5-0.7-0.4-0.8 1-2 3.5-3.3 2.2-1.1 3.8-2.2 3.5-2.5-0.3-0.2-2.7 0.1-5.3 0.9-4.6 1.3-4.7 1.3-6.9-1.5-1.3-1.6-2.3-3.2-2.3-3.6 0-0.4 3.5-0.9 7.8-1l7.7-0.3c-14.3-0.4-16.5-0.1-16.5 0.8zm-20.7 3.4l3.7 0.3v18l-11.5 0.7 12.5 0.3v-20l-8.5 0.4zm164.1 8.8c0 5 0.2 7.2 0.4 5 0.2-2.2 0.2-6.2 0-9-0.2-2.7-0.4-0.9-0.4 4zm-182.9-6.1c-0.3 0.7-0.4 4.9-0.2 9.2l0.4 7.9c0.4-17 0.5-17.5 2.6-17.8l2.3-0.4c-3.6-0.2-4.8 0.3-5.1 1.1zm64.6 0.6c-2 1-3.5 2.4-3.5 3.1 0 0.7-0.7 1.5-1.5 1.8q-1.5 0.5-0.8-0.7c0.5-0.8-0.3-0.7-2.2 0.3-1.7 0.8-3 1.7-3 2 0 0.3 0.9 0.1 2-0.5 1.1-0.5 2.2-0.8 2.5-0.5 0.2 0.3-0.8 1.4-2.3 2.5l-2.7 2c3.3 3.5 4.7 4 6.2 3.6 1.8-0.5 2.2-0.2 1.7 1.2-0.3 1 0.5 2.7 2.1 4.2 2.5 2.5 2.5 2.5 4.2 0.6 1.7-1.9 1.7-1.9 0-0.5-1.6 1.3-2.1 1.2-4-0.8l-2.2-2.2c3.5-4.7 4.2-6.1 4-6.1-0.3 0-2.1 0.8-4 1.8-3.2 1.5-3.7 1.6-5.1 0.2-1.5-1.3-0.9-2 5.5-7.2 3.9-3.2 7.1-6 7.1-6.3 0-0.3-0.1-0.5-0.3-0.4-0.1 0-1.8 0.8-3.7 1.9zm74.3 8.5c0 5.5 0.2 7.5 0.4 4.5 0.2-3 0.2-7.5 0-10-0.2-2.5-0.4 0-0.4 5.5zm112 2.5c0 4.1 0.2 5.9 0.4 4 0.2-1.9 0.2-5.3 0-7.5-0.2-2.2-0.4-0.6-0.4 3.5zm-15.4 1.8l0.5 5.7c0.5-7.7 0.3-10.3-0.2-10.7-0.4-0.4-0.5 1.9-0.3 5zm29 0l0.5 5.7c0.5-7.7 0.3-10.3-0.2-10.7-0.4-0.4-0.5 1.9-0.3 5zm-33.7 0.7c0.1 2.9 0.2 3.7 0.5 2 0.2-1.6 0.2-3.9 0-5-0.3-1.1-0.5 0.3-0.5 3zm29 0c0.1 2.9 0.2 3.7 0.5 2 0.2-1.6 0.2-3.9 0-5-0.3-1.1-0.5 0.3-0.5 3zm-186.2 0.6c-2.5 1.7-4.4 3.3-4.3 3.7 0.1 0.4 0.8 0.2 1.4-0.5 0.7-0.7 1.7-1.3 2.2-1.3 0.5 0-0.5 1.5-2.3 3.3l-3.2 3.2 5.7 4.5c5-3.1 6.8-4 7.2-4 0.4 0-0.4 1.2-1.7 2.7l-2.5 2.8c4.4-3.9 6.1-5.9 6.8-7 0.9-1.6 0.1-1.4-4.4 1.2-5.3 3.2-5.5 3.2-7.8 1.5l-2.3-1.7c6-6.2 8.3-8.8 9-9.7 0.7-1 1.2-1.8 1-1.7-0.2 0-2.4 1.4-4.8 3zm119-1.1c0 0.6 0.5 1.4 1.2 1.8q1.2 0.7 0.5-0.5c-0.5-1 0.6-1.4 4.5-1.6l5.3-0.3c-9.1-0.3-11.5 0-11.5 0.6zm-188.5 7.7c1.1 0.3 3.1 0.3 4.5 0 1.3-0.2 0.4-0.4-2-0.4-2.5 0-3.6 0.2-2.5 0.4zm87.3 5.5c-1.3 1.7-3.6 4-5.1 5-2.7 1.8-2.8 1.8-6.2-0.2-2-1.1-3.5-1.8-3.5-1.5 0 0.3 2 1.8 4.5 3.3 2.5 1.5 4.8 2.4 5.2 2 0.3-0.4 0-0.8-0.8-0.8-0.8 0 0.1-1.2 2-2.7 1.8-1.5 4.2-4 5.2-5.5 1-1.5 1.7-2.8 1.4-2.8-0.2 0-1.5 1.4-2.7 3.2zm43.9 1.6c-0.9 2.6-1.4 4.8-1.2 5 0.3 0.1 1-1.8 1.8-4.3 0.7-2.5 1.2-4.7 1.2-4.9 0-0.3-0.8 1.6-1.8 4.2zm-68.2 8.9c1.6 0.3 4.8 0.3 7 0 2.2-0.2 0.8-0.3-3-0.4-3.9 0-5.7 0.2-4 0.4zm39.4 6.8c-2.4 2.5-4.2 4.5-3.9 4.5 0.2 0 2.5-2 4.9-4.5 2.5-2.5 4.2-4.5 4-4.5-0.3 0-2.5 2-5 4.5zm-35.9 2.2c1.9 0.3 5.3 0.3 7.5 0 2.2-0.2 0.6-0.3-3.5-0.3-4.2 0-6 0.1-4 0.3zm-11 16.1c2.4 0.2 6 0.2 8-0.1 1.9-0.2-0.1-0.3-4.5-0.3-4.4 0-6 0.1-3.5 0.4zm2 11c3.5 0.2 8.9 0.2 12 0 3-0.2 0.1-0.4-6.5-0.4-6.6 0-9.1 0.2-5.5 0.4z"/>
		<path id="Path 5" class="s2" d="m152 174.7c-1.3 1.4-1.3 1.7 0.3 3.4 0.9 1.1 1.9 1.9 2.2 1.9 0.3 0 0.5-0.7 0.5-1.5 0-0.8 0.8-1.5 1.7-1.5 1.5 0 1.5-0.3-0.5-2-1.2-1.1-2.3-2-2.5-1.9-0.1 0-0.9 0.8-1.7 1.6zm-10.3 15.1c-0.4 1.2-1.7 2.5-2.9 2.8l-2.3 0.7c3.5 1.3 4.9 2.7 5.4 4l1 2.2c0.1-3.7 0.9-4.7 2.4-5.1l2.2-0.6c-3.3-2.6-4.5-4-4.7-4.8-0.4-1.1-0.7-0.9-1.1 0.8z"/>
	</g>
</svg>